<svg preserveAspectRatio="none" width="100%" height="100%" overflow="visible" style="display: block;" viewBox="0 0 199 199" fill="none" xmlns="http://www.w3.org/2000/svg">
<g id="Calque_1" clip-path="url(#clip0_0_4)">
<g id="Vector">
<path d="M7.96989 0H0V47.7575H7.96989V0Z" fill="var(--fill-0, #EEDED0)" style="mix-blend-mode:overlay"/>
</g>
<g id="Vector_2">
<path d="M7.96989 47.7575H0V55.7274H7.96989V47.7575Z" fill="var(--fill-0, #EEDED0)" style="mix-blend-mode:overlay"/>
</g>
<g id="Vector_3">
<path d="M7.96989 63.6973H0V71.6672H7.96989V63.6973Z" fill="var(--fill-0, #EEDED0)" style="mix-blend-mode:overlay"/>
</g>
<g id="Vector_4">
<path d="M7.96989 87.5761H0V135.334H7.96989V87.5761Z" fill="var(--fill-0, #EEDED0)" style="mix-blend-mode:overlay"/>
</g>
<g id="Vector_5">
<path d="M7.96989 143.303H0V159.212H7.96989V143.303Z" fill="var(--fill-0, #EEDED0)" style="mix-blend-mode:overlay"/>
</g>
<g id="Vector_6">
<path d="M7.96989 159.212H0V183.091H7.96989V159.212Z" fill="var(--fill-0, #EEDED0)" style="mix-blend-mode:overlay"/>
</g>
<g id="Vector_7">
<path d="M7.96989 183.091H0V199H7.96989V183.091Z" fill="var(--fill-0, #EEDED0)" style="mix-blend-mode:overlay"/>
</g>
<g id="Vector_8">
<path d="M15.9398 0H7.96989V7.96989H15.9398V0Z" fill="var(--fill-0, #EEDED0)" style="mix-blend-mode:overlay"/>
</g>
<g id="Vector_9">
<path d="M15.9398 47.7575H7.96989V55.7274H15.9398V47.7575Z" fill="var(--fill-0, #EEDED0)" style="mix-blend-mode:overlay"/>
</g>
<g id="Vector_10">
<path d="M15.9398 71.6363H7.96989V87.5452H15.9398V71.6363Z" fill="var(--fill-0, #EEDED0)" style="mix-blend-mode:overlay"/>
</g>
<g id="Vector_11">
<path d="M15.9398 87.5761H7.96989V95.546H15.9398V87.5761Z" fill="var(--fill-0, #EEDED0)" style="mix-blend-mode:overlay"/>
</g>
<g id="Vector_12">
<path d="M15.9398 111.455H7.96989V119.425H15.9398V111.455Z" fill="var(--fill-0, #EEDED0)" style="mix-blend-mode:overlay"/>
</g>
<g id="Vector_13">
<path d="M15.9398 143.303H7.96989V151.273H15.9398V143.303Z" fill="var(--fill-0, #EEDED0)" style="mix-blend-mode:overlay"/>
</g>
<g id="Vector_14">
<path d="M15.9398 191.061H7.96989V199.031H15.9398V191.061Z" fill="var(--fill-0, #EEDED0)" style="mix-blend-mode:overlay"/>
</g>
<g id="Vector_15">
<path d="M23.8788 0H15.9089V7.96989H23.8788V0Z" fill="var(--fill-0, #EEDED0)" style="mix-blend-mode:overlay"/>
</g>
<g id="Vector_16">
<path d="M23.8788 15.9089H15.9089V39.7876H23.8788V15.9089Z" fill="var(--fill-0, #EEDED0)" style="mix-blend-mode:overlay"/>
</g>
<g id="Vector_17">
<path d="M23.8788 47.7575H15.9089V55.7274H23.8788V47.7575Z" fill="var(--fill-0, #EEDED0)" style="mix-blend-mode:overlay"/>
</g>
<g id="Vector_18">
<path d="M23.8788 71.6363H15.9089V79.6062H23.8788V71.6363Z" fill="var(--fill-0, #EEDED0)" style="mix-blend-mode:overlay"/>
</g>
<g id="Vector_19">
<path d="M23.8788 87.5761H15.9089V111.455H23.8788V87.5761Z" fill="var(--fill-0, #EEDED0)" style="mix-blend-mode:overlay"/>
</g>
<g id="Vector_20">
<path d="M23.8788 127.364H15.9089V135.334H23.8788V127.364Z" fill="var(--fill-0, #EEDED0)" style="mix-blend-mode:overlay"/>
</g>
<g id="Vector_21">
<path d="M23.8788 143.303H15.9089V151.273H23.8788V143.303Z" fill="var(--fill-0, #EEDED0)" style="mix-blend-mode:overlay"/>
</g>
<g id="Vector_22">
<path d="M23.8788 159.212H15.9089V183.091H23.8788V159.212Z" fill="var(--fill-0, #EEDED0)" style="mix-blend-mode:overlay"/>
</g>
<g id="Vector_23">
<path d="M23.8788 191.061H15.9089V199.031H23.8788V191.061Z" fill="var(--fill-0, #EEDED0)" style="mix-blend-mode:overlay"/>
</g>
<g id="Vector_24">
<path d="M31.8487 0H23.8788V7.96989H31.8487V0Z" fill="var(--fill-0, #EEDED0)" style="mix-blend-mode:overlay"/>
</g>
<g id="Vector_25">
<path d="M31.8487 15.9089H23.8788V39.7876H31.8487V15.9089Z" fill="var(--fill-0, #EEDED0)" style="mix-blend-mode:overlay"/>
</g>
<g id="Vector_26">
<path d="M31.8487 47.7575H23.8788V55.7274H31.8487V47.7575Z" fill="var(--fill-0, #EEDED0)" style="mix-blend-mode:overlay"/>
</g>
<g id="Vector_27">
<path d="M31.8487 63.6973H23.8788V79.6062H31.8487V63.6973Z" fill="var(--fill-0, #EEDED0)" style="mix-blend-mode:overlay"/>
</g>
<g id="Vector_28">
<path d="M31.8487 87.5761H23.8788V103.485H31.8487V87.5761Z" fill="var(--fill-0, #EEDED0)" style="mix-blend-mode:overlay"/>
</g>
<g id="Vector_29">
<path d="M31.8487 111.455H23.8788V119.425H31.8487V111.455Z" fill="var(--fill-0, #EEDED0)" style="mix-blend-mode:overlay"/>
</g>
<g id="Vector_30">
<path d="M31.8487 127.364H23.8788V135.334H31.8487V127.364Z" fill="var(--fill-0, #EEDED0)" style="mix-blend-mode:overlay"/>
</g>
<g id="Vector_31">
<path d="M31.8487 143.303H23.8788V151.273H31.8487V143.303Z" fill="var(--fill-0, #EEDED0)" style="mix-blend-mode:overlay"/>
</g>
<g id="Vector_32">
<path d="M31.8487 159.212H23.8788V183.091H31.8487V159.212Z" fill="var(--fill-0, #EEDED0)" style="mix-blend-mode:overlay"/>
</g>
<g id="Vector_33">
<path d="M31.8487 191.061H23.8788V199.031H31.8487V191.061Z" fill="var(--fill-0, #EEDED0)" style="mix-blend-mode:overlay"/>
</g>
<g id="Vector_34">
<path d="M39.8185 0H31.8486V7.96989H39.8185V0Z" fill="var(--fill-0, #EEDED0)" style="mix-blend-mode:overlay"/>
</g>
<g id="Vector_35">
<path d="M39.8185 15.9089H31.8486V39.7876H39.8185V15.9089Z" fill="var(--fill-0, #EEDED0)" style="mix-blend-mode:overlay"/>
</g>
<g id="Vector_36">
<path d="M39.8185 47.7575H31.8486V55.7274H39.8185V47.7575Z" fill="var(--fill-0, #EEDED0)" style="mix-blend-mode:overlay"/>
</g>
<g id="Vector_37">
<path d="M39.8185 63.6973H31.8486V71.6672H39.8185V63.6973Z" fill="var(--fill-0, #EEDED0)" style="mix-blend-mode:overlay"/>
</g>
<g id="Vector_38">
<path d="M39.8185 95.5151H31.8486V119.394H39.8185V95.5151Z" fill="var(--fill-0, #EEDED0)" style="mix-blend-mode:overlay"/>
</g>
<g id="Vector_39">
<path d="M39.8185 127.364H31.8486V135.334H39.8185V127.364Z" fill="var(--fill-0, #EEDED0)" style="mix-blend-mode:overlay"/>
</g>
<g id="Vector_40">
<path d="M39.8185 143.303H31.8486V151.273H39.8185V143.303Z" fill="var(--fill-0, #EEDED0)" style="mix-blend-mode:overlay"/>
</g>
<g id="Vector_41">
<path d="M39.8185 159.212H31.8486V183.091H39.8185V159.212Z" fill="var(--fill-0, #EEDED0)" style="mix-blend-mode:overlay"/>
</g>
<g id="Vector_42">
<path d="M39.8185 191.061H31.8486V199.031H39.8185V191.061Z" fill="var(--fill-0, #EEDED0)" style="mix-blend-mode:overlay"/>
</g>
<g id="Vector_43">
<path d="M47.7575 0H39.7876V7.96989H47.7575V0Z" fill="var(--fill-0, #EEDED0)" style="mix-blend-mode:overlay"/>
</g>
<g id="Vector_44">
<path d="M47.7575 47.7575H39.7876V55.7274H47.7575V47.7575Z" fill="var(--fill-0, #EEDED0)" style="mix-blend-mode:overlay"/>
</g>
<g id="Vector_45">
<path d="M47.7575 63.6973H39.7876V71.6672H47.7575V63.6973Z" fill="var(--fill-0, #EEDED0)" style="mix-blend-mode:overlay"/>
</g>
<g id="Vector_46">
<path d="M47.7575 79.6062H39.7876V87.5761H47.7575V79.6062Z" fill="var(--fill-0, #EEDED0)" style="mix-blend-mode:overlay"/>
</g>
<g id="Vector_47">
<path d="M47.7575 95.5151H39.7876V103.485H47.7575V95.5151Z" fill="var(--fill-0, #EEDED0)" style="mix-blend-mode:overlay"/>
</g>
<g id="Vector_48">
<path d="M47.7575 119.394H39.7876V135.303H47.7575V119.394Z" fill="var(--fill-0, #EEDED0)" style="mix-blend-mode:overlay"/>
</g>
<g id="Vector_49">
<path d="M47.7575 143.303H39.7876V151.273H47.7575V143.303Z" fill="var(--fill-0, #EEDED0)" style="mix-blend-mode:overlay"/>
</g>
<g id="Vector_50">
<path d="M47.7575 191.061H39.7876V199.031H47.7575V191.061Z" fill="var(--fill-0, #EEDED0)" style="mix-blend-mode:overlay"/>
</g>
<g id="Vector_51">
<path d="M55.7274 0H47.7575V47.7575H55.7274V0Z" fill="var(--fill-0, #EEDED0)" style="mix-blend-mode:overlay"/>
</g>
<g id="Vector_52">
<path d="M55.7274 47.7575H47.7575V55.7274H55.7274V47.7575Z" fill="var(--fill-0, #EEDED0)" style="mix-blend-mode:overlay"/>
</g>
<g id="Vector_53">
<path d="M55.7274 63.6973H47.7575V71.6672H55.7274V63.6973Z" fill="var(--fill-0, #EEDED0)" style="mix-blend-mode:overlay"/>
</g>
<g id="Vector_54">
<path d="M55.7274 79.6062H47.7575V87.5761H55.7274V79.6062Z" fill="var(--fill-0, #EEDED0)" style="mix-blend-mode:overlay"/>
</g>
<g id="Vector_55">
<path d="M55.7274 95.5151H47.7575V103.485H55.7274V95.5151Z" fill="var(--fill-0, #EEDED0)" style="mix-blend-mode:overlay"/>
</g>
<g id="Vector_56">
<path d="M55.7274 111.455H47.7575V119.425H55.7274V111.455Z" fill="var(--fill-0, #EEDED0)" style="mix-blend-mode:overlay"/>
</g>
<g id="Vector_57">
<path d="M55.7274 127.364H47.7575V135.334H55.7274V127.364Z" fill="var(--fill-0, #EEDED0)" style="mix-blend-mode:overlay"/>
</g>
<g id="Vector_58">
<path d="M55.7274 143.303H47.7575V159.212H55.7274V143.303Z" fill="var(--fill-0, #EEDED0)" style="mix-blend-mode:overlay"/>
</g>
<g id="Vector_59">
<path d="M55.7274 159.212H47.7575V183.091H55.7274V159.212Z" fill="var(--fill-0, #EEDED0)" style="mix-blend-mode:overlay"/>
</g>
<g id="Vector_60">
<path d="M55.7274 183.091H47.7575V199H55.7274V183.091Z" fill="var(--fill-0, #EEDED0)" style="mix-blend-mode:overlay"/>
</g>
<g id="Vector_61">
<path d="M63.6973 63.6973H55.7274V71.6672H63.6973V63.6973Z" fill="var(--fill-0, #EEDED0)" style="mix-blend-mode:overlay"/>
</g>
<g id="Vector_62">
<path d="M63.6973 79.6062H55.7274V87.5761H63.6973V79.6062Z" fill="var(--fill-0, #EEDED0)" style="mix-blend-mode:overlay"/>
</g>
<g id="Vector_63">
<path d="M71.6672 0H63.6973V23.8788H71.6672V0Z" fill="var(--fill-0, #EEDED0)" style="mix-blend-mode:overlay"/>
</g>
<g id="Vector_64">
<path d="M71.6672 31.8486H63.6973V39.8185H71.6672V31.8486Z" fill="var(--fill-0, #EEDED0)" style="mix-blend-mode:overlay"/>
</g>
<g id="Vector_65">
<path d="M71.6672 47.7575H63.6973V55.7274H71.6672V47.7575Z" fill="var(--fill-0, #EEDED0)" style="mix-blend-mode:overlay"/>
</g>
<g id="Vector_66">
<path d="M71.6672 63.6973H63.6973V79.6062H71.6672V63.6973Z" fill="var(--fill-0, #EEDED0)" style="mix-blend-mode:overlay"/>
</g>
<g id="Vector_67">
<path d="M71.6672 95.5151H63.6973V127.364H71.6672V95.5151Z" fill="var(--fill-0, #EEDED0)" style="mix-blend-mode:overlay"/>
</g>
<g id="Vector_68">
<path d="M71.6672 135.334H63.6973V159.212H71.6672V135.334Z" fill="var(--fill-0, #EEDED0)" style="mix-blend-mode:overlay"/>
</g>
<g id="Vector_69">
<path d="M71.6672 159.212H63.6973V175.121H71.6672V159.212Z" fill="var(--fill-0, #EEDED0)" style="mix-blend-mode:overlay"/>
</g>
<g id="Vector_70">
<path d="M71.6672 191.061H63.6973V199.031H71.6672V191.061Z" fill="var(--fill-0, #EEDED0)" style="mix-blend-mode:overlay"/>
</g>
<g id="Vector_71">
<path d="M79.6062 15.9089H71.6363V23.8788H79.6062V15.9089Z" fill="var(--fill-0, #EEDED0)" style="mix-blend-mode:overlay"/>
</g>
<g id="Vector_72">
<path d="M79.6062 31.8486H71.6363V47.7575H79.6062V31.8486Z" fill="var(--fill-0, #EEDED0)" style="mix-blend-mode:overlay"/>
</g>
<g id="Vector_73">
<path d="M79.6062 55.7274H71.6363V87.5761H79.6062V55.7274Z" fill="var(--fill-0, #EEDED0)" style="mix-blend-mode:overlay"/>
</g>
<g id="Vector_74">
<path d="M79.6062 87.5761H71.6363V95.546H79.6062V87.5761Z" fill="var(--fill-0, #EEDED0)" style="mix-blend-mode:overlay"/>
</g>
<g id="Vector_75">
<path d="M79.6062 111.455H71.6363V119.425H79.6062V111.455Z" fill="var(--fill-0, #EEDED0)" style="mix-blend-mode:overlay"/>
</g>
<g id="Vector_76">
<path d="M79.6062 127.364H71.6363V135.334H79.6062V127.364Z" fill="var(--fill-0, #EEDED0)" style="mix-blend-mode:overlay"/>
</g>
<g id="Vector_77">
<path d="M79.6062 135.334H71.6363V143.303H79.6062V135.334Z" fill="var(--fill-0, #EEDED0)" style="mix-blend-mode:overlay"/>
</g>
<g id="Vector_78">
<path d="M79.6062 151.242H71.6363V159.212H79.6062V151.242Z" fill="var(--fill-0, #EEDED0)" style="mix-blend-mode:overlay"/>
</g>
<g id="Vector_79">
<path d="M79.6062 159.212H71.6363V167.182H79.6062V159.212Z" fill="var(--fill-0, #EEDED0)" style="mix-blend-mode:overlay"/>
</g>
<g id="Vector_80">
<path d="M79.6062 183.091H71.6363V199H79.6062V183.091Z" fill="var(--fill-0, #EEDED0)" style="mix-blend-mode:overlay"/>
</g>
<g id="Vector_81">
<path d="M87.5761 15.9089H79.6062V23.8788H87.5761V15.9089Z" fill="var(--fill-0, #EEDED0)" style="mix-blend-mode:overlay"/>
</g>
<g id="Vector_82">
<path d="M87.5761 39.7876H79.6062V47.7575H87.5761V39.7876Z" fill="var(--fill-0, #EEDED0)" style="mix-blend-mode:overlay"/>
</g>
<g id="Vector_83">
<path d="M87.5761 47.7575H79.6062V63.6664H87.5761V47.7575Z" fill="var(--fill-0, #EEDED0)" style="mix-blend-mode:overlay"/>
</g>
<g id="Vector_84">
<path d="M87.5761 79.6062H79.6062V87.5761H87.5761V79.6062Z" fill="var(--fill-0, #EEDED0)" style="mix-blend-mode:overlay"/>
</g>
<g id="Vector_85">
<path d="M87.5761 111.455H79.6062V127.364H87.5761V111.455Z" fill="var(--fill-0, #EEDED0)" style="mix-blend-mode:overlay"/>
</g>
<g id="Vector_86">
<path d="M87.5761 151.242H79.6062V159.212H87.5761V151.242Z" fill="var(--fill-0, #EEDED0)" style="mix-blend-mode:overlay"/>
</g>
<g id="Vector_87">
<path d="M87.5761 159.212H79.6062V183.091H87.5761V159.212Z" fill="var(--fill-0, #EEDED0)" style="mix-blend-mode:overlay"/>
</g>
<g id="Vector_88">
<path d="M87.5761 183.091H79.6062V191.061H87.5761V183.091Z" fill="var(--fill-0, #EEDED0)" style="mix-blend-mode:overlay"/>
</g>
<g id="Vector_89">
<path d="M95.546 7.96989H87.5761V23.8788H95.546V7.96989Z" fill="var(--fill-0, #EEDED0)" style="mix-blend-mode:overlay"/>
</g>
<g id="Vector_90">
<path d="M95.546 31.8486H87.5761V39.8185H95.546V31.8486Z" fill="var(--fill-0, #EEDED0)" style="mix-blend-mode:overlay"/>
</g>
<g id="Vector_91">
<path d="M95.546 55.7274H87.5761V79.6062H95.546V55.7274Z" fill="var(--fill-0, #EEDED0)" style="mix-blend-mode:overlay"/>
</g>
<g id="Vector_92">
<path d="M95.546 87.5761H87.5761V103.485H95.546V87.5761Z" fill="var(--fill-0, #EEDED0)" style="mix-blend-mode:overlay"/>
</g>
<g id="Vector_93">
<path d="M95.546 111.455H87.5761V127.364H95.546V111.455Z" fill="var(--fill-0, #EEDED0)" style="mix-blend-mode:overlay"/>
</g>
<g id="Vector_94">
<path d="M95.546 135.334H87.5761V151.242H95.546V135.334Z" fill="var(--fill-0, #EEDED0)" style="mix-blend-mode:overlay"/>
</g>
<g id="Vector_95">
<path d="M103.485 0H95.5151V47.7575H103.485V0Z" fill="var(--fill-0, #EEDED0)" style="mix-blend-mode:overlay"/>
</g>
<g id="Vector_96">
<path d="M103.485 47.7575H95.5151V55.7274H103.485V47.7575Z" fill="var(--fill-0, #EEDED0)" style="mix-blend-mode:overlay"/>
</g>
<g id="Vector_97">
<path d="M103.485 95.5151H95.5151V103.485H103.485V95.5151Z" fill="var(--fill-0, #EEDED0)" style="mix-blend-mode:overlay"/>
</g>
<g id="Vector_98">
<path d="M103.485 111.455H95.5151V119.425H103.485V111.455Z" fill="var(--fill-0, #EEDED0)" style="mix-blend-mode:overlay"/>
</g>
<g id="Vector_99">
<path d="M103.485 135.334H95.5151V143.303H103.485V135.334Z" fill="var(--fill-0, #EEDED0)" style="mix-blend-mode:overlay"/>
</g>
<g id="Vector_100">
<path d="M103.485 151.242H95.5151V159.212H103.485V151.242Z" fill="var(--fill-0, #EEDED0)" style="mix-blend-mode:overlay"/>
</g>
<g id="Vector_101">
<path d="M103.485 159.212H95.5151V167.182H103.485V159.212Z" fill="var(--fill-0, #EEDED0)" style="mix-blend-mode:overlay"/>
</g>
<g id="Vector_102">
<path d="M103.485 175.121H95.5151V183.091H103.485V175.121Z" fill="var(--fill-0, #EEDED0)" style="mix-blend-mode:overlay"/>
</g>
<g id="Vector_103">
<path d="M103.485 191.061H95.5151V199.031H103.485V191.061Z" fill="var(--fill-0, #EEDED0)" style="mix-blend-mode:overlay"/>
</g>
<g id="Vector_104">
<path d="M111.455 7.96989H103.485V47.7884H111.455V7.96989Z" fill="var(--fill-0, #EEDED0)" style="mix-blend-mode:overlay"/>
</g>
<g id="Vector_105">
<path d="M111.455 55.7274H103.485V63.6973H111.455V55.7274Z" fill="var(--fill-0, #EEDED0)" style="mix-blend-mode:overlay"/>
</g>
<g id="Vector_106">
<path d="M111.455 79.6062H103.485V87.5761H111.455V79.6062Z" fill="var(--fill-0, #EEDED0)" style="mix-blend-mode:overlay"/>
</g>
<g id="Vector_107">
<path d="M111.455 127.364H103.485V135.334H111.455V127.364Z" fill="var(--fill-0, #EEDED0)" style="mix-blend-mode:overlay"/>
</g>
<g id="Vector_108">
<path d="M111.455 135.334H103.485V159.212H111.455V135.334Z" fill="var(--fill-0, #EEDED0)" style="mix-blend-mode:overlay"/>
</g>
<g id="Vector_109">
<path d="M111.455 167.182H103.485V183.091H111.455V167.182Z" fill="var(--fill-0, #EEDED0)" style="mix-blend-mode:overlay"/>
</g>
<g id="Vector_110">
<path d="M111.455 191.061H103.485V199.031H111.455V191.061Z" fill="var(--fill-0, #EEDED0)" style="mix-blend-mode:overlay"/>
</g>
<g id="Vector_111">
<path d="M119.425 0H111.455V7.96989H119.425V0Z" fill="var(--fill-0, #EEDED0)" style="mix-blend-mode:overlay"/>
</g>
<g id="Vector_112">
<path d="M119.425 15.9089H111.455V47.7575H119.425V15.9089Z" fill="var(--fill-0, #EEDED0)" style="mix-blend-mode:overlay"/>
</g>
<g id="Vector_113">
<path d="M119.425 47.7575H111.455V87.5452H119.425V47.7575Z" fill="var(--fill-0, #EEDED0)" style="mix-blend-mode:overlay"/>
</g>
<g id="Vector_114">
<path d="M119.425 87.5761H111.455V95.546H119.425V87.5761Z" fill="var(--fill-0, #EEDED0)" style="mix-blend-mode:overlay"/>
</g>
<g id="Vector_115">
<path d="M119.425 103.485H111.455V119.394H119.425V103.485Z" fill="var(--fill-0, #EEDED0)" style="mix-blend-mode:overlay"/>
</g>
<g id="Vector_116">
<path d="M119.425 167.182H111.455V175.152H119.425V167.182Z" fill="var(--fill-0, #EEDED0)" style="mix-blend-mode:overlay"/>
</g>
<g id="Vector_117">
<path d="M119.425 183.091H111.455V199H119.425V183.091Z" fill="var(--fill-0, #EEDED0)" style="mix-blend-mode:overlay"/>
</g>
<g id="Vector_118">
<path d="M127.364 15.9089H119.394V23.8788H127.364V15.9089Z" fill="var(--fill-0, #EEDED0)" style="mix-blend-mode:overlay"/>
</g>
<g id="Vector_119">
<path d="M127.364 55.7274H119.394V87.5761H127.364V55.7274Z" fill="var(--fill-0, #EEDED0)" style="mix-blend-mode:overlay"/>
</g>
<g id="Vector_120">
<path d="M127.364 95.5151H119.394V119.394H127.364V95.5151Z" fill="var(--fill-0, #EEDED0)" style="mix-blend-mode:overlay"/>
</g>
<g id="Vector_121">
<path d="M127.364 151.242H119.394V159.212H127.364V151.242Z" fill="var(--fill-0, #EEDED0)" style="mix-blend-mode:overlay"/>
</g>
<g id="Vector_122">
<path d="M127.364 159.212H119.394V167.182H127.364V159.212Z" fill="var(--fill-0, #EEDED0)" style="mix-blend-mode:overlay"/>
</g>
<g id="Vector_123">
<path d="M135.334 7.96989H127.364V15.9398H135.334V7.96989Z" fill="var(--fill-0, #EEDED0)" style="mix-blend-mode:overlay"/>
</g>
<g id="Vector_124">
<path d="M135.334 31.8486H127.364V39.8185H135.334V31.8486Z" fill="var(--fill-0, #EEDED0)" style="mix-blend-mode:overlay"/>
</g>
<g id="Vector_125">
<path d="M135.334 47.7575H127.364V55.7274H135.334V47.7575Z" fill="var(--fill-0, #EEDED0)" style="mix-blend-mode:overlay"/>
</g>
<g id="Vector_126">
<path d="M135.334 87.5761H127.364V95.546H135.334V87.5761Z" fill="var(--fill-0, #EEDED0)" style="mix-blend-mode:overlay"/>
</g>
<g id="Vector_127">
<path d="M135.334 103.485H127.364V111.455H135.334V103.485Z" fill="var(--fill-0, #EEDED0)" style="mix-blend-mode:overlay"/>
</g>
<g id="Vector_128">
<path d="M135.334 119.394H127.364V135.303H135.334V119.394Z" fill="var(--fill-0, #EEDED0)" style="mix-blend-mode:overlay"/>
</g>
<g id="Vector_129">
<path d="M135.334 135.334H127.364V159.212H135.334V135.334Z" fill="var(--fill-0, #EEDED0)" style="mix-blend-mode:overlay"/>
</g>
<g id="Vector_130">
<path d="M135.334 159.212H127.364V183.091H135.334V159.212Z" fill="var(--fill-0, #EEDED0)" style="mix-blend-mode:overlay"/>
</g>
<g id="Vector_131">
<path d="M135.334 191.061H127.364V199.031H135.334V191.061Z" fill="var(--fill-0, #EEDED0)" style="mix-blend-mode:overlay"/>
</g>
<g id="Vector_132">
<path d="M143.303 63.6973H135.334V79.6062H143.303V63.6973Z" fill="var(--fill-0, #EEDED0)" style="mix-blend-mode:overlay"/>
</g>
<g id="Vector_133">
<path d="M143.303 103.485H135.334V135.334H143.303V103.485Z" fill="var(--fill-0, #EEDED0)" style="mix-blend-mode:overlay"/>
</g>
<g id="Vector_134">
<path d="M143.303 159.212H135.334V167.182H143.303V159.212Z" fill="var(--fill-0, #EEDED0)" style="mix-blend-mode:overlay"/>
</g>
<g id="Vector_135">
<path d="M143.303 175.121H135.334V183.091H143.303V175.121Z" fill="var(--fill-0, #EEDED0)" style="mix-blend-mode:overlay"/>
</g>
<g id="Vector_136">
<path d="M143.303 191.061H135.334V199.031H143.303V191.061Z" fill="var(--fill-0, #EEDED0)" style="mix-blend-mode:overlay"/>
</g>
<g id="Vector_137">
<path d="M151.273 0H143.303V47.7575H151.273V0Z" fill="var(--fill-0, #EEDED0)" style="mix-blend-mode:overlay"/>
</g>
<g id="Vector_138">
<path d="M151.273 47.7575H143.303V55.7274H151.273V47.7575Z" fill="var(--fill-0, #EEDED0)" style="mix-blend-mode:overlay"/>
</g>
<g id="Vector_139">
<path d="M151.273 79.6062H143.303V87.5761H151.273V79.6062Z" fill="var(--fill-0, #EEDED0)" style="mix-blend-mode:overlay"/>
</g>
<g id="Vector_140">
<path d="M151.273 95.5151H143.303V103.485H151.273V95.5151Z" fill="var(--fill-0, #EEDED0)" style="mix-blend-mode:overlay"/>
</g>
<g id="Vector_141">
<path d="M151.273 111.455H143.303V119.425H151.273V111.455Z" fill="var(--fill-0, #EEDED0)" style="mix-blend-mode:overlay"/>
</g>
<g id="Vector_142">
<path d="M151.273 127.364H143.303V135.334H151.273V127.364Z" fill="var(--fill-0, #EEDED0)" style="mix-blend-mode:overlay"/>
</g>
<g id="Vector_143">
<path d="M151.273 143.303H143.303V151.273H151.273V143.303Z" fill="var(--fill-0, #EEDED0)" style="mix-blend-mode:overlay"/>
</g>
<g id="Vector_144">
<path d="M151.273 159.212H143.303V175.121H151.273V159.212Z" fill="var(--fill-0, #EEDED0)" style="mix-blend-mode:overlay"/>
</g>
<g id="Vector_145">
<path d="M159.212 0H151.242V7.96989H159.212V0Z" fill="var(--fill-0, #EEDED0)" style="mix-blend-mode:overlay"/>
</g>
<g id="Vector_146">
<path d="M159.212 47.7575H151.242V55.7274H159.212V47.7575Z" fill="var(--fill-0, #EEDED0)" style="mix-blend-mode:overlay"/>
</g>
<g id="Vector_147">
<path d="M159.212 71.6363H151.242V87.5452H159.212V71.6363Z" fill="var(--fill-0, #EEDED0)" style="mix-blend-mode:overlay"/>
</g>
<g id="Vector_148">
<path d="M159.212 87.5761H151.242V95.546H159.212V87.5761Z" fill="var(--fill-0, #EEDED0)" style="mix-blend-mode:overlay"/>
</g>
<g id="Vector_149">
<path d="M159.212 119.394H151.242V135.303H159.212V119.394Z" fill="var(--fill-0, #EEDED0)" style="mix-blend-mode:overlay"/>
</g>
<g id="Vector_150">
<path d="M159.212 159.212H151.242V167.182H159.212V159.212Z" fill="var(--fill-0, #EEDED0)" style="mix-blend-mode:overlay"/>
</g>
<g id="Vector_151">
<path d="M159.212 183.091H151.242V191.061H159.212V183.091Z" fill="var(--fill-0, #EEDED0)" style="mix-blend-mode:overlay"/>
</g>
<g id="Vector_152">
<path d="M167.182 0H159.212V7.96989H167.182V0Z" fill="var(--fill-0, #EEDED0)" style="mix-blend-mode:overlay"/>
</g>
<g id="Vector_153">
<path d="M167.182 15.9089H159.212V39.7876H167.182V15.9089Z" fill="var(--fill-0, #EEDED0)" style="mix-blend-mode:overlay"/>
</g>
<g id="Vector_154">
<path d="M167.182 47.7575H159.212V55.7274H167.182V47.7575Z" fill="var(--fill-0, #EEDED0)" style="mix-blend-mode:overlay"/>
</g>
<g id="Vector_155">
<path d="M167.182 63.6973H159.212V79.6062H167.182V63.6973Z" fill="var(--fill-0, #EEDED0)" style="mix-blend-mode:overlay"/>
</g>
<g id="Vector_156">
<path d="M167.182 103.485H159.212V119.394H167.182V103.485Z" fill="var(--fill-0, #EEDED0)" style="mix-blend-mode:overlay"/>
</g>
<g id="Vector_157">
<path d="M167.182 127.364H159.212V135.334H167.182V127.364Z" fill="var(--fill-0, #EEDED0)" style="mix-blend-mode:overlay"/>
</g>
<g id="Vector_158">
<path d="M167.182 135.334H159.212V159.212H167.182V135.334Z" fill="var(--fill-0, #EEDED0)" style="mix-blend-mode:overlay"/>
</g>
<g id="Vector_159">
<path d="M167.182 159.212H159.212V167.182H167.182V159.212Z" fill="var(--fill-0, #EEDED0)" style="mix-blend-mode:overlay"/>
</g>
<g id="Vector_160">
<path d="M167.182 175.121H159.212V183.091H167.182V175.121Z" fill="var(--fill-0, #EEDED0)" style="mix-blend-mode:overlay"/>
</g>
<g id="Vector_161">
<path d="M167.182 183.091H159.212V191.061H167.182V183.091Z" fill="var(--fill-0, #EEDED0)" style="mix-blend-mode:overlay"/>
</g>
<g id="Vector_162">
<path d="M175.121 0H167.151V7.96989H175.121V0Z" fill="var(--fill-0, #EEDED0)" style="mix-blend-mode:overlay"/>
</g>
<g id="Vector_163">
<path d="M175.121 15.9089H167.151V39.7876H175.121V15.9089Z" fill="var(--fill-0, #EEDED0)" style="mix-blend-mode:overlay"/>
</g>
<g id="Vector_164">
<path d="M175.121 47.7575H167.151V55.7274H175.121V47.7575Z" fill="var(--fill-0, #EEDED0)" style="mix-blend-mode:overlay"/>
</g>
<g id="Vector_165">
<path d="M175.121 71.6363H167.151V87.5452H175.121V71.6363Z" fill="var(--fill-0, #EEDED0)" style="mix-blend-mode:overlay"/>
</g>
<g id="Vector_166">
<path d="M175.121 87.5761H167.151V95.546H175.121V87.5761Z" fill="var(--fill-0, #EEDED0)" style="mix-blend-mode:overlay"/>
</g>
<g id="Vector_167">
<path d="M175.121 111.455H167.151V127.364H175.121V111.455Z" fill="var(--fill-0, #EEDED0)" style="mix-blend-mode:overlay"/>
</g>
<g id="Vector_168">
<path d="M175.121 175.121H167.151V183.091H175.121V175.121Z" fill="var(--fill-0, #EEDED0)" style="mix-blend-mode:overlay"/>
</g>
<g id="Vector_169">
<path d="M175.121 191.061H167.151V199.031H175.121V191.061Z" fill="var(--fill-0, #EEDED0)" style="mix-blend-mode:overlay"/>
</g>
<g id="Vector_170">
<path d="M183.091 0H175.121V7.96989H183.091V0Z" fill="var(--fill-0, #EEDED0)" style="mix-blend-mode:overlay"/>
</g>
<g id="Vector_171">
<path d="M183.091 15.9089H175.121V39.7876H183.091V15.9089Z" fill="var(--fill-0, #EEDED0)" style="mix-blend-mode:overlay"/>
</g>
<g id="Vector_172">
<path d="M183.091 47.7575H175.121V55.7274H183.091V47.7575Z" fill="var(--fill-0, #EEDED0)" style="mix-blend-mode:overlay"/>
</g>
<g id="Vector_173">
<path d="M183.091 63.6973H175.121V79.6062H183.091V63.6973Z" fill="var(--fill-0, #EEDED0)" style="mix-blend-mode:overlay"/>
</g>
<g id="Vector_174">
<path d="M183.091 87.5761H175.121V95.546H183.091V87.5761Z" fill="var(--fill-0, #EEDED0)" style="mix-blend-mode:overlay"/>
</g>
<g id="Vector_175">
<path d="M183.091 111.455H175.121V135.334H183.091V111.455Z" fill="var(--fill-0, #EEDED0)" style="mix-blend-mode:overlay"/>
</g>
<g id="Vector_176">
<path d="M183.091 135.334H175.121V143.303H183.091V135.334Z" fill="var(--fill-0, #EEDED0)" style="mix-blend-mode:overlay"/>
</g>
<g id="Vector_177">
<path d="M183.091 175.121H175.121V183.091H183.091V175.121Z" fill="var(--fill-0, #EEDED0)" style="mix-blend-mode:overlay"/>
</g>
<g id="Vector_178">
<path d="M183.091 183.091H175.121V191.061H183.091V183.091Z" fill="var(--fill-0, #EEDED0)" style="mix-blend-mode:overlay"/>
</g>
<g id="Vector_179">
<path d="M191.061 0H183.091V7.96989H191.061V0Z" fill="var(--fill-0, #EEDED0)" style="mix-blend-mode:overlay"/>
</g>
<g id="Vector_180">
<path d="M191.061 47.7575H183.091V55.7274H191.061V47.7575Z" fill="var(--fill-0, #EEDED0)" style="mix-blend-mode:overlay"/>
</g>
<g id="Vector_181">
<path d="M191.061 63.6973H183.091V79.6062H191.061V63.6973Z" fill="var(--fill-0, #EEDED0)" style="mix-blend-mode:overlay"/>
</g>
<g id="Vector_182">
<path d="M191.061 87.5761H183.091V95.546H191.061V87.5761Z" fill="var(--fill-0, #EEDED0)" style="mix-blend-mode:overlay"/>
</g>
<g id="Vector_183">
<path d="M191.061 103.485H183.091V119.394H191.061V103.485Z" fill="var(--fill-0, #EEDED0)" style="mix-blend-mode:overlay"/>
</g>
<g id="Vector_184">
<path d="M191.061 127.364H183.091V135.334H191.061V127.364Z" fill="var(--fill-0, #EEDED0)" style="mix-blend-mode:overlay"/>
</g>
<g id="Vector_185">
<path d="M191.061 135.334H183.091V143.303H191.061V135.334Z" fill="var(--fill-0, #EEDED0)" style="mix-blend-mode:overlay"/>
</g>
<g id="Vector_186">
<path d="M191.061 151.242H183.091V159.212H191.061V151.242Z" fill="var(--fill-0, #EEDED0)" style="mix-blend-mode:overlay"/>
</g>
<g id="Vector_187">
<path d="M191.061 159.212H183.091V183.091H191.061V159.212Z" fill="var(--fill-0, #EEDED0)" style="mix-blend-mode:overlay"/>
</g>
<g id="Vector_188">
<path d="M191.061 183.091H183.091V191.061H191.061V183.091Z" fill="var(--fill-0, #EEDED0)" style="mix-blend-mode:overlay"/>
</g>
<g id="Vector_189">
<path d="M199.031 0H191.061V47.7575H199.031V0Z" fill="var(--fill-0, #EEDED0)" style="mix-blend-mode:overlay"/>
</g>
<g id="Vector_190">
<path d="M199.031 47.7575H191.061V55.7274H199.031V47.7575Z" fill="var(--fill-0, #EEDED0)" style="mix-blend-mode:overlay"/>
</g>
<g id="Vector_191">
<path d="M199.031 63.6973H191.061V71.6672H199.031V63.6973Z" fill="var(--fill-0, #EEDED0)" style="mix-blend-mode:overlay"/>
</g>
<g id="Vector_192">
<path d="M199.031 79.6062H191.061V87.5761H199.031V79.6062Z" fill="var(--fill-0, #EEDED0)" style="mix-blend-mode:overlay"/>
</g>
<g id="Vector_193">
<path d="M199.031 87.5761H191.061V103.485H199.031V87.5761Z" fill="var(--fill-0, #EEDED0)" style="mix-blend-mode:overlay"/>
</g>
<g id="Vector_194">
<path d="M199.031 111.455H191.061V127.364H199.031V111.455Z" fill="var(--fill-0, #EEDED0)" style="mix-blend-mode:overlay"/>
</g>
<g id="Vector_195">
<path d="M199.031 143.303H191.061V151.273H199.031V143.303Z" fill="var(--fill-0, #EEDED0)" style="mix-blend-mode:overlay"/>
</g>
<g id="Vector_196">
<path d="M199.031 159.212H191.061V183.091H199.031V159.212Z" fill="var(--fill-0, #EEDED0)" style="mix-blend-mode:overlay"/>
</g>
<g id="Vector_197">
<path d="M199.031 183.091H191.061V199H199.031V183.091Z" fill="var(--fill-0, #EEDED0)" style="mix-blend-mode:overlay"/>
</g>
</g>
<defs>
<clipPath id="clip0_0_4">
<rect width="199" height="199" fill="white"/>
</clipPath>
</defs>
</svg>
